<mxfile host="app.diagrams.net" agent="Mozilla/5.0 (Windows NT 10.0; Win64; x64) AppleWebKit/537.36 (KHTML, like Gecko) Chrome/132.0.0.0 Safari/537.36 Edg/132.0.0.0" version="26.0.14" pages="2">
  <diagram name="Copy of Navigation Task Arch" id="A7tP2kAOvxMpOCoKa6W8">
    <mxGraphModel dx="985" dy="625" grid="1" gridSize="10" guides="1" tooltips="1" connect="1" arrows="1" fold="1" page="1" pageScale="1" pageWidth="1654" pageHeight="1169" math="0" shadow="0">
      <root>
        <mxCell id="uVi1ZGqEORjigenbXFzZ-0" />
        <mxCell id="uVi1ZGqEORjigenbXFzZ-1" parent="uVi1ZGqEORjigenbXFzZ-0" />
        <mxCell id="uVi1ZGqEORjigenbXFzZ-2" style="edgeStyle=orthogonalEdgeStyle;rounded=0;orthogonalLoop=1;jettySize=auto;html=1;exitX=0.398;exitY=0.002;exitDx=0;exitDy=0;entryX=0;entryY=0.5;entryDx=0;entryDy=0;exitPerimeter=0;" parent="uVi1ZGqEORjigenbXFzZ-1" source="uVi1ZGqEORjigenbXFzZ-6" target="uVi1ZGqEORjigenbXFzZ-8" edge="1">
          <mxGeometry relative="1" as="geometry" />
        </mxCell>
        <mxCell id="uVi1ZGqEORjigenbXFzZ-4" style="edgeStyle=orthogonalEdgeStyle;rounded=0;orthogonalLoop=1;jettySize=auto;html=1;exitX=0.828;exitY=-0.002;exitDx=0;exitDy=0;entryX=0;entryY=0.5;entryDx=0;entryDy=0;exitPerimeter=0;" parent="uVi1ZGqEORjigenbXFzZ-1" source="uVi1ZGqEORjigenbXFzZ-6" target="uVi1ZGqEORjigenbXFzZ-16" edge="1">
          <mxGeometry relative="1" as="geometry" />
        </mxCell>
        <mxCell id="LT8P5vwooViMCDUgxmi_-3" value="sensor_msgs/Image&lt;br&gt;&lt;br&gt;sensor_msgs/CameraInfo" style="edgeLabel;html=1;align=center;verticalAlign=middle;resizable=0;points=[];labelBackgroundColor=none;" vertex="1" connectable="0" parent="uVi1ZGqEORjigenbXFzZ-4">
          <mxGeometry x="-0.1698" y="4" relative="1" as="geometry">
            <mxPoint x="3" y="4" as="offset" />
          </mxGeometry>
        </mxCell>
        <mxCell id="uVi1ZGqEORjigenbXFzZ-6" value="ZED Camera" style="rounded=1;whiteSpace=wrap;html=1;direction=south;fillColor=#cce5ff;strokeColor=#36393d;" parent="uVi1ZGqEORjigenbXFzZ-1" vertex="1">
          <mxGeometry x="40" y="80" width="60" height="320" as="geometry" />
        </mxCell>
        <mxCell id="uVi1ZGqEORjigenbXFzZ-7" value="Perception" style="swimlane;whiteSpace=wrap;html=1;dashed=1;rounded=1;fillColor=#f8cecc;strokeColor=#b85450;" parent="uVi1ZGqEORjigenbXFzZ-1" vertex="1">
          <mxGeometry x="230" y="80" width="320" height="320" as="geometry" />
        </mxCell>
        <mxCell id="uVi1ZGqEORjigenbXFzZ-8" value="Obstacle Tracker" style="rounded=1;whiteSpace=wrap;html=1;glass=0;fillColor=#e1d5e7;arcSize=5;dashed=1;strokeColor=#9673a6;labelPosition=center;verticalLabelPosition=top;align=center;verticalAlign=bottom;" parent="uVi1ZGqEORjigenbXFzZ-7" vertex="1">
          <mxGeometry x="20" y="50" width="270" height="155" as="geometry" />
        </mxCell>
        <mxCell id="uVi1ZGqEORjigenbXFzZ-9" value="Object Detection Model&lt;div&gt;(YOLO/SDD)&lt;/div&gt;" style="rounded=1;whiteSpace=wrap;html=1;fillColor=#dae8fc;strokeColor=#6c8ebf;" parent="uVi1ZGqEORjigenbXFzZ-7" vertex="1">
          <mxGeometry x="30" y="60" width="120" height="50" as="geometry" />
        </mxCell>
        <mxCell id="uVi1ZGqEORjigenbXFzZ-10" value="Depth Estimation" style="rounded=1;whiteSpace=wrap;html=1;fillColor=#dae8fc;strokeColor=#6c8ebf;" parent="uVi1ZGqEORjigenbXFzZ-7" vertex="1">
          <mxGeometry x="30" y="160" width="120" height="35" as="geometry" />
        </mxCell>
        <mxCell id="uVi1ZGqEORjigenbXFzZ-11" value="Obstacle Position Estimation" style="rounded=1;whiteSpace=wrap;html=1;fillColor=#fff2cc;strokeColor=#d6b656;" parent="uVi1ZGqEORjigenbXFzZ-7" vertex="1">
          <mxGeometry x="200" y="60" width="80" height="135" as="geometry" />
        </mxCell>
        <mxCell id="uVi1ZGqEORjigenbXFzZ-12" style="edgeStyle=orthogonalEdgeStyle;rounded=0;orthogonalLoop=1;jettySize=auto;html=1;exitX=1;exitY=0.5;exitDx=0;exitDy=0;entryX=0.005;entryY=0.181;entryDx=0;entryDy=0;entryPerimeter=0;dashed=1;dashPattern=8 8;" parent="uVi1ZGqEORjigenbXFzZ-7" source="uVi1ZGqEORjigenbXFzZ-9" target="uVi1ZGqEORjigenbXFzZ-11" edge="1">
          <mxGeometry relative="1" as="geometry" />
        </mxCell>
        <mxCell id="uVi1ZGqEORjigenbXFzZ-13" value="Bounding&lt;div&gt;&lt;span style=&quot;color: light-dark(rgb(0, 0, 0), rgb(255, 255, 255));&quot;&gt;Box&lt;/span&gt;&lt;/div&gt;" style="edgeLabel;html=1;align=center;verticalAlign=middle;resizable=0;points=[];labelBackgroundColor=none;" parent="uVi1ZGqEORjigenbXFzZ-12" vertex="1" connectable="0">
          <mxGeometry x="-0.0144" y="-1" relative="1" as="geometry">
            <mxPoint y="17" as="offset" />
          </mxGeometry>
        </mxCell>
        <mxCell id="uVi1ZGqEORjigenbXFzZ-14" style="edgeStyle=orthogonalEdgeStyle;rounded=0;orthogonalLoop=1;jettySize=auto;html=1;exitX=1;exitY=0.5;exitDx=0;exitDy=0;entryX=0.005;entryY=0.87;entryDx=0;entryDy=0;entryPerimeter=0;dashed=1;dashPattern=8 8;" parent="uVi1ZGqEORjigenbXFzZ-7" source="uVi1ZGqEORjigenbXFzZ-10" target="uVi1ZGqEORjigenbXFzZ-11" edge="1">
          <mxGeometry relative="1" as="geometry" />
        </mxCell>
        <mxCell id="uVi1ZGqEORjigenbXFzZ-15" value="Depth" style="edgeLabel;html=1;align=center;verticalAlign=middle;resizable=0;points=[];labelBackgroundColor=none;" parent="uVi1ZGqEORjigenbXFzZ-14" vertex="1" connectable="0">
          <mxGeometry x="-0.0152" relative="1" as="geometry">
            <mxPoint y="8" as="offset" />
          </mxGeometry>
        </mxCell>
        <mxCell id="uVi1ZGqEORjigenbXFzZ-16" value="AR Tag Tracker" style="rounded=1;whiteSpace=wrap;html=1;fillColor=#fff2cc;strokeColor=#d6b656;" parent="uVi1ZGqEORjigenbXFzZ-7" vertex="1">
          <mxGeometry x="20" y="220" width="270" height="90" as="geometry" />
        </mxCell>
        <mxCell id="LT8P5vwooViMCDUgxmi_-0" value="Size Estimation" style="rounded=1;whiteSpace=wrap;html=1;fillColor=#dae8fc;strokeColor=#6c8ebf;" vertex="1" parent="uVi1ZGqEORjigenbXFzZ-7">
          <mxGeometry x="30" y="117" width="120" height="35" as="geometry" />
        </mxCell>
        <mxCell id="LT8P5vwooViMCDUgxmi_-1" style="edgeStyle=orthogonalEdgeStyle;rounded=0;orthogonalLoop=1;jettySize=auto;html=1;exitX=1;exitY=0.5;exitDx=0;exitDy=0;entryX=0;entryY=0.557;entryDx=0;entryDy=0;entryPerimeter=0;dashed=1;dashPattern=8 8;" edge="1" parent="uVi1ZGqEORjigenbXFzZ-7" source="LT8P5vwooViMCDUgxmi_-0" target="uVi1ZGqEORjigenbXFzZ-11">
          <mxGeometry relative="1" as="geometry" />
        </mxCell>
        <mxCell id="LT8P5vwooViMCDUgxmi_-2" value="Size" style="edgeLabel;html=1;align=center;verticalAlign=middle;resizable=0;points=[];labelBackgroundColor=none;" vertex="1" connectable="0" parent="LT8P5vwooViMCDUgxmi_-1">
          <mxGeometry x="-0.2158" y="1" relative="1" as="geometry">
            <mxPoint y="11" as="offset" />
          </mxGeometry>
        </mxCell>
        <mxCell id="uVi1ZGqEORjigenbXFzZ-17" value="Localization" style="swimlane;whiteSpace=wrap;html=1;dashed=1;rounded=1;fillColor=#b1ddf0;strokeColor=#10739e;" parent="uVi1ZGqEORjigenbXFzZ-1" vertex="1">
          <mxGeometry x="230" y="450" width="320" height="150" as="geometry" />
        </mxCell>
        <mxCell id="uVi1ZGqEORjigenbXFzZ-18" value="Unscented Kalman Filter" style="rounded=1;whiteSpace=wrap;html=1;fillColor=#fff2cc;strokeColor=#d6b656;" parent="uVi1ZGqEORjigenbXFzZ-17" vertex="1">
          <mxGeometry x="25" y="40.5" width="270" height="90" as="geometry" />
        </mxCell>
        <mxCell id="uVi1ZGqEORjigenbXFzZ-19" style="edgeStyle=orthogonalEdgeStyle;rounded=0;orthogonalLoop=1;jettySize=auto;html=1;exitX=1;exitY=0.5;exitDx=0;exitDy=0;entryX=0;entryY=0.5;entryDx=0;entryDy=0;" parent="uVi1ZGqEORjigenbXFzZ-1" target="uVi1ZGqEORjigenbXFzZ-18" edge="1">
          <mxGeometry relative="1" as="geometry">
            <mxPoint x="520" y="354.9999999999999" as="sourcePoint" />
            <Array as="points">
              <mxPoint x="580" y="355" />
              <mxPoint x="580" y="420" />
              <mxPoint x="200" y="420" />
              <mxPoint x="200" y="535" />
            </Array>
          </mxGeometry>
        </mxCell>
        <mxCell id="uVi1ZGqEORjigenbXFzZ-20" value="Landmarks&lt;br&gt;&lt;br&gt;(roar_msgs/LandmarksArray)" style="edgeLabel;html=1;align=center;verticalAlign=middle;resizable=0;points=[];labelBackgroundColor=none;" parent="uVi1ZGqEORjigenbXFzZ-19" vertex="1" connectable="0">
          <mxGeometry x="-0.2079" y="-1" relative="1" as="geometry">
            <mxPoint x="-57" y="1" as="offset" />
          </mxGeometry>
        </mxCell>
        <mxCell id="uVi1ZGqEORjigenbXFzZ-21" value="Path Planning" style="swimlane;whiteSpace=wrap;html=1;dashed=1;rounded=1;fillColor=#b0e3e6;strokeColor=#0e8088;" parent="uVi1ZGqEORjigenbXFzZ-1" vertex="1">
          <mxGeometry x="710" y="80" width="310" height="320" as="geometry" />
        </mxCell>
        <mxCell id="LT8P5vwooViMCDUgxmi_-11" style="edgeStyle=orthogonalEdgeStyle;rounded=0;orthogonalLoop=1;jettySize=auto;html=1;exitX=1;exitY=0.5;exitDx=0;exitDy=0;endArrow=none;startFill=1;startArrow=classic;" edge="1" parent="uVi1ZGqEORjigenbXFzZ-21" source="uVi1ZGqEORjigenbXFzZ-22">
          <mxGeometry relative="1" as="geometry">
            <mxPoint x="380" y="310" as="targetPoint" />
          </mxGeometry>
        </mxCell>
        <mxCell id="uVi1ZGqEORjigenbXFzZ-22" value="Local Planner&lt;br&gt;(APF)" style="rounded=1;whiteSpace=wrap;html=1;fillColor=#fff2cc;strokeColor=#d6b656;" parent="uVi1ZGqEORjigenbXFzZ-21" vertex="1">
          <mxGeometry x="20" y="66" width="270" height="90" as="geometry" />
        </mxCell>
        <mxCell id="uVi1ZGqEORjigenbXFzZ-25" value="Global Planner&lt;br&gt;(A*)" style="rounded=1;whiteSpace=wrap;html=1;fillColor=#dae8fc;strokeColor=#6c8ebf;" parent="uVi1ZGqEORjigenbXFzZ-21" vertex="1">
          <mxGeometry x="20" y="180" width="270" height="90" as="geometry" />
        </mxCell>
        <mxCell id="uVi1ZGqEORjigenbXFzZ-26" value="Control" style="swimlane;whiteSpace=wrap;html=1;dashed=1;rounded=1;fillColor=#bac8d3;strokeColor=#23445d;" parent="uVi1ZGqEORjigenbXFzZ-1" vertex="1">
          <mxGeometry x="705" y="450" width="320" height="150" as="geometry" />
        </mxCell>
        <mxCell id="uVi1ZGqEORjigenbXFzZ-27" value="Pure Pursuit&lt;br&gt;(Simple / Adaptive)" style="rounded=1;whiteSpace=wrap;html=1;fillColor=#fff2cc;strokeColor=#d6b656;" parent="uVi1ZGqEORjigenbXFzZ-26" vertex="1">
          <mxGeometry x="25" y="40.5" width="270" height="90" as="geometry" />
        </mxCell>
        <mxCell id="uVi1ZGqEORjigenbXFzZ-28" style="edgeStyle=orthogonalEdgeStyle;rounded=0;orthogonalLoop=1;jettySize=auto;html=1;exitX=1;exitY=0.5;exitDx=0;exitDy=0;entryX=0;entryY=0.5;entryDx=0;entryDy=0;" parent="uVi1ZGqEORjigenbXFzZ-1" source="uVi1ZGqEORjigenbXFzZ-18" target="uVi1ZGqEORjigenbXFzZ-27" edge="1">
          <mxGeometry relative="1" as="geometry" />
        </mxCell>
        <mxCell id="uVi1ZGqEORjigenbXFzZ-29" style="edgeStyle=orthogonalEdgeStyle;rounded=0;orthogonalLoop=1;jettySize=auto;html=1;exitX=1;exitY=0.5;exitDx=0;exitDy=0;entryX=0;entryY=0.5;entryDx=0;entryDy=0;" parent="uVi1ZGqEORjigenbXFzZ-1" source="uVi1ZGqEORjigenbXFzZ-18" target="uVi1ZGqEORjigenbXFzZ-22" edge="1">
          <mxGeometry relative="1" as="geometry">
            <Array as="points">
              <mxPoint x="600" y="536" />
              <mxPoint x="600" y="191" />
            </Array>
          </mxGeometry>
        </mxCell>
        <mxCell id="uVi1ZGqEORjigenbXFzZ-30" value="Rover Position&lt;br&gt;(nav_msgs/Odometry)" style="edgeLabel;html=1;align=center;verticalAlign=middle;resizable=0;points=[];" parent="uVi1ZGqEORjigenbXFzZ-29" vertex="1" connectable="0">
          <mxGeometry x="-0.7897" y="2" relative="1" as="geometry">
            <mxPoint x="47" y="18" as="offset" />
          </mxGeometry>
        </mxCell>
        <mxCell id="uVi1ZGqEORjigenbXFzZ-31" style="edgeStyle=orthogonalEdgeStyle;rounded=0;orthogonalLoop=1;jettySize=auto;html=1;exitX=1;exitY=0.25;exitDx=0;exitDy=0;entryX=0;entryY=0.25;entryDx=0;entryDy=0;" parent="uVi1ZGqEORjigenbXFzZ-1" source="uVi1ZGqEORjigenbXFzZ-8" target="uVi1ZGqEORjigenbXFzZ-22" edge="1">
          <mxGeometry relative="1" as="geometry" />
        </mxCell>
        <mxCell id="uVi1ZGqEORjigenbXFzZ-32" value="&lt;div&gt;Obstacles&lt;/div&gt;&lt;div&gt;&lt;br&gt;&lt;/div&gt;(roar_msgs/ObstacleArray)" style="edgeLabel;html=1;align=center;verticalAlign=middle;resizable=0;points=[];labelBackgroundColor=none;" parent="uVi1ZGqEORjigenbXFzZ-31" vertex="1" connectable="0">
          <mxGeometry x="-0.1567" y="2" relative="1" as="geometry">
            <mxPoint x="22" y="1" as="offset" />
          </mxGeometry>
        </mxCell>
        <mxCell id="uVi1ZGqEORjigenbXFzZ-33" style="edgeStyle=orthogonalEdgeStyle;rounded=0;orthogonalLoop=1;jettySize=auto;html=1;exitX=0;exitY=0.75;exitDx=0;exitDy=0;entryX=0;entryY=0.25;entryDx=0;entryDy=0;" parent="uVi1ZGqEORjigenbXFzZ-1" source="uVi1ZGqEORjigenbXFzZ-22" target="uVi1ZGqEORjigenbXFzZ-27" edge="1">
          <mxGeometry relative="1" as="geometry">
            <Array as="points">
              <mxPoint x="620" y="214" />
              <mxPoint x="620" y="513" />
            </Array>
          </mxGeometry>
        </mxCell>
        <mxCell id="FVLik-NXSBZMexWVvohm-0" value="Local Path" style="edgeLabel;html=1;align=center;verticalAlign=middle;resizable=0;points=[];" parent="uVi1ZGqEORjigenbXFzZ-33" vertex="1" connectable="0">
          <mxGeometry x="0.7498" relative="1" as="geometry">
            <mxPoint x="5" y="-289" as="offset" />
          </mxGeometry>
        </mxCell>
        <mxCell id="FVLik-NXSBZMexWVvohm-2" style="edgeStyle=orthogonalEdgeStyle;rounded=0;orthogonalLoop=1;jettySize=auto;html=1;exitX=0.285;exitY=0.028;exitDx=0;exitDy=0;entryX=0.25;entryY=1;entryDx=0;entryDy=0;exitPerimeter=0;" parent="uVi1ZGqEORjigenbXFzZ-1" edge="1">
          <mxGeometry relative="1" as="geometry">
            <mxPoint x="282.15" y="641.6799999999998" as="sourcePoint" />
            <mxPoint x="282.4999999999999" y="580.5" as="targetPoint" />
          </mxGeometry>
        </mxCell>
        <mxCell id="LT8P5vwooViMCDUgxmi_-17" value="GPS" style="edgeLabel;html=1;align=center;verticalAlign=middle;resizable=0;points=[];" vertex="1" connectable="0" parent="FVLik-NXSBZMexWVvohm-2">
          <mxGeometry x="-0.2322" relative="1" as="geometry">
            <mxPoint as="offset" />
          </mxGeometry>
        </mxCell>
        <mxCell id="FVLik-NXSBZMexWVvohm-3" style="edgeStyle=orthogonalEdgeStyle;rounded=0;orthogonalLoop=1;jettySize=auto;html=1;exitX=0.354;exitY=0.007;exitDx=0;exitDy=0;entryX=0.357;entryY=0.998;entryDx=0;entryDy=0;exitPerimeter=0;entryPerimeter=0;" parent="uVi1ZGqEORjigenbXFzZ-1" edge="1">
          <mxGeometry relative="1" as="geometry">
            <mxPoint x="350.4599999999998" y="640.4199999999998" as="sourcePoint" />
            <mxPoint x="351.39" y="580.3199999999999" as="targetPoint" />
          </mxGeometry>
        </mxCell>
        <mxCell id="LT8P5vwooViMCDUgxmi_-16" value="IMU" style="edgeLabel;html=1;align=center;verticalAlign=middle;resizable=0;points=[];" vertex="1" connectable="0" parent="FVLik-NXSBZMexWVvohm-3">
          <mxGeometry x="-0.149" y="-1" relative="1" as="geometry">
            <mxPoint y="3" as="offset" />
          </mxGeometry>
        </mxCell>
        <mxCell id="FVLik-NXSBZMexWVvohm-4" style="edgeStyle=orthogonalEdgeStyle;rounded=0;orthogonalLoop=1;jettySize=auto;html=1;exitX=0.421;exitY=-0.003;exitDx=0;exitDy=0;entryX=0.75;entryY=1;entryDx=0;entryDy=0;exitPerimeter=0;" parent="uVi1ZGqEORjigenbXFzZ-1" edge="1">
          <mxGeometry relative="1" as="geometry">
            <mxPoint x="426.7900000000001" y="639.8199999999999" as="sourcePoint" />
            <mxPoint x="427.5" y="580.5" as="targetPoint" />
          </mxGeometry>
        </mxCell>
        <mxCell id="LT8P5vwooViMCDUgxmi_-15" value="Encoders" style="edgeLabel;html=1;align=center;verticalAlign=middle;resizable=0;points=[];" vertex="1" connectable="0" parent="FVLik-NXSBZMexWVvohm-4">
          <mxGeometry x="-0.1559" y="-1" relative="1" as="geometry">
            <mxPoint y="3" as="offset" />
          </mxGeometry>
        </mxCell>
        <mxCell id="LT8P5vwooViMCDUgxmi_-5" style="edgeStyle=orthogonalEdgeStyle;rounded=0;orthogonalLoop=1;jettySize=auto;html=1;exitX=1;exitY=0.25;exitDx=0;exitDy=0;entryX=0.25;entryY=1;entryDx=0;entryDy=0;" edge="1" parent="uVi1ZGqEORjigenbXFzZ-1" source="uVi1ZGqEORjigenbXFzZ-37" target="uVi1ZGqEORjigenbXFzZ-25">
          <mxGeometry relative="1" as="geometry">
            <Array as="points">
              <mxPoint x="1050" y="655" />
              <mxPoint x="1050" y="430" />
              <mxPoint x="798" y="430" />
            </Array>
          </mxGeometry>
        </mxCell>
        <mxCell id="LT8P5vwooViMCDUgxmi_-7" value="Map" style="edgeLabel;html=1;align=center;verticalAlign=middle;resizable=0;points=[];" vertex="1" connectable="0" parent="LT8P5vwooViMCDUgxmi_-5">
          <mxGeometry x="0.4941" y="-4" relative="1" as="geometry">
            <mxPoint x="-52" y="-46" as="offset" />
          </mxGeometry>
        </mxCell>
        <mxCell id="LT8P5vwooViMCDUgxmi_-6" style="edgeStyle=orthogonalEdgeStyle;rounded=0;orthogonalLoop=1;jettySize=auto;html=1;exitX=1;exitY=0.75;exitDx=0;exitDy=0;entryX=0.75;entryY=1;entryDx=0;entryDy=0;endArrow=none;startFill=1;startArrow=classic;" edge="1" parent="uVi1ZGqEORjigenbXFzZ-1" source="uVi1ZGqEORjigenbXFzZ-37" target="uVi1ZGqEORjigenbXFzZ-25">
          <mxGeometry relative="1" as="geometry">
            <Array as="points">
              <mxPoint x="1090" y="685" />
              <mxPoint x="1090" y="390" />
              <mxPoint x="933" y="390" />
            </Array>
          </mxGeometry>
        </mxCell>
        <mxCell id="LT8P5vwooViMCDUgxmi_-10" value="Path" style="edgeLabel;html=1;align=center;verticalAlign=middle;resizable=0;points=[];" vertex="1" connectable="0" parent="LT8P5vwooViMCDUgxmi_-6">
          <mxGeometry x="0.7376" y="-2" relative="1" as="geometry">
            <mxPoint x="-15" y="-8" as="offset" />
          </mxGeometry>
        </mxCell>
        <mxCell id="LT8P5vwooViMCDUgxmi_-8" style="edgeStyle=orthogonalEdgeStyle;rounded=0;orthogonalLoop=1;jettySize=auto;html=1;exitX=1;exitY=0.5;exitDx=0;exitDy=0;" edge="1" parent="uVi1ZGqEORjigenbXFzZ-1" source="uVi1ZGqEORjigenbXFzZ-37" target="uVi1ZGqEORjigenbXFzZ-25">
          <mxGeometry relative="1" as="geometry">
            <Array as="points">
              <mxPoint x="1070" y="670" />
              <mxPoint x="1070" y="410" />
              <mxPoint x="865" y="410" />
            </Array>
          </mxGeometry>
        </mxCell>
        <mxCell id="LT8P5vwooViMCDUgxmi_-9" value="Waypoints" style="edgeLabel;html=1;align=center;verticalAlign=middle;resizable=0;points=[];" vertex="1" connectable="0" parent="LT8P5vwooViMCDUgxmi_-8">
          <mxGeometry x="0.5929" y="3" relative="1" as="geometry">
            <mxPoint x="-27" y="-33" as="offset" />
          </mxGeometry>
        </mxCell>
        <mxCell id="uVi1ZGqEORjigenbXFzZ-37" value="Supervisor" style="rounded=1;whiteSpace=wrap;html=1;fillColor=#fad7ac;strokeColor=#b46504;" parent="uVi1ZGqEORjigenbXFzZ-1" vertex="1">
          <mxGeometry x="40" y="640" width="990" height="60" as="geometry" />
        </mxCell>
        <mxCell id="FVLik-NXSBZMexWVvohm-1" style="edgeStyle=orthogonalEdgeStyle;rounded=0;orthogonalLoop=1;jettySize=auto;html=1;exitX=1;exitY=0.5;exitDx=0;exitDy=0;entryX=0.031;entryY=-0.003;entryDx=0;entryDy=0;entryPerimeter=0;" parent="uVi1ZGqEORjigenbXFzZ-1" source="uVi1ZGqEORjigenbXFzZ-6" target="uVi1ZGqEORjigenbXFzZ-37" edge="1">
          <mxGeometry relative="1" as="geometry">
            <mxPoint x="60" y="670" as="targetPoint" />
          </mxGeometry>
        </mxCell>
        <mxCell id="FVLik-NXSBZMexWVvohm-6" style="edgeStyle=orthogonalEdgeStyle;rounded=0;orthogonalLoop=1;jettySize=auto;html=1;exitX=0.5;exitY=1;exitDx=0;exitDy=0;entryX=0.833;entryY=-0.004;entryDx=0;entryDy=0;entryPerimeter=0;" parent="uVi1ZGqEORjigenbXFzZ-1" source="uVi1ZGqEORjigenbXFzZ-27" target="uVi1ZGqEORjigenbXFzZ-37" edge="1">
          <mxGeometry relative="1" as="geometry" />
        </mxCell>
        <mxCell id="FVLik-NXSBZMexWVvohm-7" value="GUI" style="rounded=1;whiteSpace=wrap;html=1;fillColor=#d0cee2;strokeColor=#56517e;" parent="uVi1ZGqEORjigenbXFzZ-1" vertex="1">
          <mxGeometry x="560" y="740" width="470" height="60" as="geometry" />
        </mxCell>
        <mxCell id="FVLik-NXSBZMexWVvohm-9" value="IMU" style="rounded=1;whiteSpace=wrap;html=1;fillColor=#cce5ff;strokeColor=#36393d;" parent="uVi1ZGqEORjigenbXFzZ-1" vertex="1">
          <mxGeometry x="40" y="840" width="100" height="60" as="geometry" />
        </mxCell>
        <mxCell id="FVLik-NXSBZMexWVvohm-10" value="GPS" style="rounded=1;whiteSpace=wrap;html=1;fillColor=#cce5ff;strokeColor=#36393d;" parent="uVi1ZGqEORjigenbXFzZ-1" vertex="1">
          <mxGeometry x="170" y="840" width="100" height="60" as="geometry" />
        </mxCell>
        <mxCell id="FVLik-NXSBZMexWVvohm-11" value="Encoders" style="rounded=1;whiteSpace=wrap;html=1;fillColor=#cce5ff;strokeColor=#36393d;" parent="uVi1ZGqEORjigenbXFzZ-1" vertex="1">
          <mxGeometry x="300" y="840" width="100" height="60" as="geometry" />
        </mxCell>
        <mxCell id="FVLik-NXSBZMexWVvohm-13" style="edgeStyle=orthogonalEdgeStyle;rounded=0;orthogonalLoop=1;jettySize=auto;html=1;exitX=0.5;exitY=0;exitDx=0;exitDy=0;entryX=0.05;entryY=1.005;entryDx=0;entryDy=0;entryPerimeter=0;" parent="uVi1ZGqEORjigenbXFzZ-1" source="FVLik-NXSBZMexWVvohm-9" target="uVi1ZGqEORjigenbXFzZ-37" edge="1">
          <mxGeometry relative="1" as="geometry" />
        </mxCell>
        <mxCell id="FVLik-NXSBZMexWVvohm-14" style="edgeStyle=orthogonalEdgeStyle;rounded=0;orthogonalLoop=1;jettySize=auto;html=1;exitX=0.5;exitY=0;exitDx=0;exitDy=0;entryX=0.181;entryY=1.005;entryDx=0;entryDy=0;entryPerimeter=0;" parent="uVi1ZGqEORjigenbXFzZ-1" source="FVLik-NXSBZMexWVvohm-10" target="uVi1ZGqEORjigenbXFzZ-37" edge="1">
          <mxGeometry relative="1" as="geometry" />
        </mxCell>
        <mxCell id="FVLik-NXSBZMexWVvohm-15" style="edgeStyle=orthogonalEdgeStyle;rounded=0;orthogonalLoop=1;jettySize=auto;html=1;exitX=0.5;exitY=0;exitDx=0;exitDy=0;entryX=0.314;entryY=0.999;entryDx=0;entryDy=0;entryPerimeter=0;" parent="uVi1ZGqEORjigenbXFzZ-1" source="FVLik-NXSBZMexWVvohm-11" target="uVi1ZGqEORjigenbXFzZ-37" edge="1">
          <mxGeometry relative="1" as="geometry" />
        </mxCell>
        <mxCell id="FVLik-NXSBZMexWVvohm-16" style="edgeStyle=orthogonalEdgeStyle;rounded=0;orthogonalLoop=1;jettySize=auto;html=1;exitX=0.25;exitY=0;exitDx=0;exitDy=0;entryX=0.644;entryY=0.998;entryDx=0;entryDy=0;entryPerimeter=0;" parent="uVi1ZGqEORjigenbXFzZ-1" source="FVLik-NXSBZMexWVvohm-7" target="uVi1ZGqEORjigenbXFzZ-37" edge="1">
          <mxGeometry relative="1" as="geometry" />
        </mxCell>
        <mxCell id="FVLik-NXSBZMexWVvohm-17" style="edgeStyle=orthogonalEdgeStyle;rounded=0;orthogonalLoop=1;jettySize=auto;html=1;exitX=0.75;exitY=0;exitDx=0;exitDy=0;entryX=0.882;entryY=1.001;entryDx=0;entryDy=0;entryPerimeter=0;startArrow=classic;startFill=1;endArrow=none;strokeColor=default;" parent="uVi1ZGqEORjigenbXFzZ-1" source="FVLik-NXSBZMexWVvohm-7" target="uVi1ZGqEORjigenbXFzZ-37" edge="1">
          <mxGeometry relative="1" as="geometry" />
        </mxCell>
        <mxCell id="FVLik-NXSBZMexWVvohm-18" value="Motors" style="rounded=1;whiteSpace=wrap;html=1;fillColor=#ffcccc;strokeColor=#36393d;" parent="uVi1ZGqEORjigenbXFzZ-1" vertex="1">
          <mxGeometry x="430" y="840" width="100" height="60" as="geometry" />
        </mxCell>
        <mxCell id="FVLik-NXSBZMexWVvohm-19" style="edgeStyle=orthogonalEdgeStyle;rounded=0;orthogonalLoop=1;jettySize=auto;html=1;exitX=0.5;exitY=0;exitDx=0;exitDy=0;entryX=0.444;entryY=0.999;entryDx=0;entryDy=0;entryPerimeter=0;endArrow=none;startFill=1;startArrow=classic;" parent="uVi1ZGqEORjigenbXFzZ-1" source="FVLik-NXSBZMexWVvohm-18" target="uVi1ZGqEORjigenbXFzZ-37" edge="1">
          <mxGeometry relative="1" as="geometry" />
        </mxCell>
        <mxCell id="LT8P5vwooViMCDUgxmi_-4" style="edgeStyle=orthogonalEdgeStyle;rounded=0;orthogonalLoop=1;jettySize=auto;html=1;exitX=0.453;exitY=-0.003;exitDx=0;exitDy=0;entryX=0.864;entryY=1.012;entryDx=0;entryDy=0;entryPerimeter=0;exitPerimeter=0;" edge="1" parent="uVi1ZGqEORjigenbXFzZ-1">
          <mxGeometry relative="1" as="geometry">
            <mxPoint x="498.47" y="639.82" as="sourcePoint" />
            <mxPoint x="498.2800000000001" y="581.5799999999999" as="targetPoint" />
          </mxGeometry>
        </mxCell>
        <mxCell id="LT8P5vwooViMCDUgxmi_-14" value="Landmark Poses" style="edgeLabel;html=1;align=center;verticalAlign=middle;resizable=0;points=[];" vertex="1" connectable="0" parent="LT8P5vwooViMCDUgxmi_-4">
          <mxGeometry x="-0.2473" relative="1" as="geometry">
            <mxPoint as="offset" />
          </mxGeometry>
        </mxCell>
        <mxCell id="LT8P5vwooViMCDUgxmi_-12" value="ROSCAN" style="rounded=1;whiteSpace=wrap;html=1;fillColor=#d5e8d4;strokeColor=#82b366;" vertex="1" parent="uVi1ZGqEORjigenbXFzZ-1">
          <mxGeometry x="40" y="740" width="490" height="60" as="geometry" />
        </mxCell>
      </root>
    </mxGraphModel>
  </diagram>
  <diagram id="L2MwYYZKYKHXz9GOdiO0" name="Supervisor - Navigation">
    <mxGraphModel dx="739" dy="469" grid="1" gridSize="10" guides="1" tooltips="1" connect="1" arrows="1" fold="1" page="1" pageScale="1" pageWidth="1654" pageHeight="1169" math="0" shadow="0">
      <root>
        <mxCell id="0" />
        <mxCell id="1" parent="0" />
      </root>
    </mxGraphModel>
  </diagram>
</mxfile>
